# xmcd CD database file
#
# Track frame offsets:
#	150
#	23422
#	42685
#	67402
#	90557
#	113800
#	144340
#
# Disc length: 4440 seconds
#
# Revision: 0
# Processed by: cddbd v1.5.1PL0 Copyright (c) Steve Scherf et al.
# Submitted via: CD2WAV32(JP) R3.22
#
DISCID=5d115607
DTITLE=鈴木亜美 - ねがいごと
DYEAR=2005
DGENRE=JPop
TTITLE0=ねがいごと
TTITLE1=Times
TTITLE2=ねがいごと 〜Electronic Remix〜
TTITLE3=ねがいごと 〜Dub's The wish was fullfilled Remix〜
TTITLE4=ねがいごと (Instrumental)
TTITLE5=Times (Instrumental)
TTITLE6=CCCD
EXTD=
EXTT0=
EXTT1=
EXTT2=
EXTT3=
EXTT4=
EXTT5=
EXTT6=
PLAYORDER=
